<svg xmlns="http://www.w3.org/2000/svg" width="31" height="32" viewBox="0 0 31 32">
  <g id="그룹_1207" data-name="그룹 1207" transform="translate(1433.5 2500)">
    <path id="패스_700" data-name="패스 700" d="M211.973,29.663l2.527-4.331-3.237-3.192a10.932,10.932,0,0,0,0-4.29l3.234-3.194-2.531-4.328-4.421,1.18A11.379,11.379,0,0,0,203.8,9.373L202.626,5H197.57l-1.18,4.373a11.386,11.386,0,0,0-4.066,2.429l-4.466-1.009L185.5,15.216l3.366,3.075a10.732,10.732,0,0,0,.09,3.993l-3.191,3.228,2.582,4.3,4.4-1.23a11.375,11.375,0,0,0,3.641,2.047L197.57,35h5.056l1.179-4.373a11.406,11.406,0,0,0,3.746-2.14Z" transform="translate(-1618 -2504)" fill="none" stroke="#FFFFFF" stroke-linejoin="round" stroke-width="2" />
    <circle id="타원_243" data-name="타원 243" cx="6" cy="6" r="6" transform="translate(-1424 -2490)" fill="none" stroke="#FFFFFF" stroke-linejoin="round" stroke-width="2" />
  </g>
</svg>